<?xml version="1.0" encoding="UTF-8" standalone="no"?>
<svg
   viewBox="0 0 512 512"
   version="1.1"
   id="svg10"
   sodipodi:docname="smpp_logo.svg"
   inkscape:export-filename="smpp_logo16.png"
   inkscape:export-xdpi="3"
   inkscape:export-ydpi="3"
   inkscape:version="1.3.2 (091e20e, 2023-11-25, custom)"
   xmlns:inkscape="http://www.inkscape.org/namespaces/inkscape"
   xmlns:sodipodi="http://sodipodi.sourceforge.net/DTD/sodipodi-0.dtd"
   xmlns="http://www.w3.org/2000/svg"
   xmlns:svg="http://www.w3.org/2000/svg">
  <sodipodi:namedview
     id="namedview10"
     pagecolor="#ffffff"
     bordercolor="#000000"
     borderopacity="0.25"
     inkscape:showpageshadow="2"
     inkscape:pageopacity="0.0"
     inkscape:pagecheckerboard="0"
     inkscape:deskcolor="#d1d1d1"
     inkscape:zoom="1.4142136"
     inkscape:cx="359.21024"
     inkscape:cy="207.88939"
     inkscape:window-width="1938"
     inkscape:window-height="1360"
     inkscape:window-x="738"
     inkscape:window-y="19"
     inkscape:window-maximized="0"
     inkscape:current-layer="g7" />
  <defs
     id="defs5">
    <style
       id="style1">
      .cls-1 {
        isolation: isolate;
      }

      .cls-2 {
        mix-blend-mode: color-burn;
        opacity: .25;
      }

      .cls-3, .cls-4 {
        fill-rule: evenodd;
      }

      .cls-3, .cls-5 {
        fill: #fff6ee;
      }

      .cls-4 {
        fill: url(#Naamloos_verloop_16);
      }

      .cls-6 {
        fill: #f5b31f;
      }

      .cls-7 {
        fill: #b49100;
      }

      .cls-8 {
        fill: #ffd515;
      }
    </style>
    <linearGradient
       id="Naamloos_verloop_16"
       data-name="Naamloos verloop 16"
       x1="256"
       y1="0"
       x2="256"
       y2="512"
       gradientUnits="userSpaceOnUse">
      <stop
         offset="0"
         stop-color="#feba06"
         id="stop1"
         style="stop-color:#feba06;stop-opacity:0;" />
      <stop
         offset="0.08"
         stop-color="#feb805"
         id="stop2"
         style="stop-color:#feb805;stop-opacity:0;" />
      <stop
         offset="0.22"
         stop-color="#feb705"
         id="stop3"
         style="stop-color:#feb705;stop-opacity:0;" />
      <stop
         offset="0.75999999"
         stop-color="#ffa303"
         id="stop4"
         style="stop-color:#ffa303;stop-opacity:0;" />
      <stop
         offset="1"
         stop-color="#f99501"
         id="stop5"
         style="stop-color:#f99501;stop-opacity:0;" />
    </linearGradient>
  </defs>
  <g
     class="cls-1"
     id="g10">
    <g
       id="Laag_2"
       data-name="Laag 2">
      <g
         id="Laag_1-2"
         data-name="Laag 1">
        <g
           class="cls-2"
           id="g7"
           style="opacity:1">
          <path
             class="cls-8"
             d="M 512,52.544869 V 111.05235 L 0,414.4066 V 52.544869 C 0,22.37262 21.79,0 51.2,0 H 460.8 C 490.2,0 512,22.37262 512,52.544869 Z"
             id="path6"
             style="opacity:1;fill:#5660ea;fill-opacity:1;stroke-width:1.01305"
             inkscape:label="path6"
             sodipodi:nodetypes="sccssss" />
          <path
             class="cls-7"
             d="m 512,460.8 c 0,29.4 -21.8,51.2 -51.2,51.2 H 51.2 C 21.79,512 0,490.2 0,460.8 v -57 L 512,108.21 Z"
             id="path7"
             style="fill:#4a50d9;fill-opacity:1;stroke-width:0;stroke-dasharray:none"
             sodipodi:nodetypes="ssssccs" />
        </g>
        <g
           id="g9">
          <path
             class="cls-3"
             d="m 416.88,170.25 -19.96,45.93 -59.74,-25.95 -27.05,62.26 -45.92,-19.96 27.05,-62.26 -40.59,-17.24 c -13.06297,-4.82678 -36.28,-15.68 -68.01,-15.68 -39.28,0 -55.91,20.08 -55.91,39.68 0,25.48 19.64,37.24 64.98,54.39 58.94,21.55 87.14,50.46 87.14,97.98 0,53.4 -41.3,99.45 -128.45,99.45 -36.27,0 -80.330154,-13.78 -98.970154,-25.05 l 20.245423,-48.60893 c 19.64,11.26 51.024731,23.68893 82.754731,23.68893 39.29,0 61.46,-18.13 61.46,-45.08 0,-24.99 -17.13,-39.68 -59.94,-54.86 -56.41,-19.6 -92.18,-48.5 -92.18,-96.02 0,-54.39 46.35,-95.05 120.39,-95.05 28.17,0 50.42,4.6 67.22,10.72 20.12089,8.13612 39.92071,17.09221 59.83,25.74 l 27.05,-62.26 45.93,19.96 -27.06,62.26 59.74,25.95 z"
             id="path8"
             sodipodi:nodetypes="cccccccsscssccsscssccccccc" />
          <path
             class="cls-5"
             d="M 473.81488,395.8919 C 455.26691,387.84594 437.06253,380.98851 418.52,372.93 l -27.35,62.95 -46.43,-20.18 27.35,-62.94 -60.4,-26.24 c 6.71985,-15.48629 13.45215,-30.96718 20.18,-46.45 l 60.39,26.24 27.35,-62.94 46.44,20.17 -27.35,62.95 54.36,23.62 z"
             id="path9"
             sodipodi:nodetypes="ccccccccccccc" />
        </g>
      </g>
    </g>
  </g>
</svg>
